<?xml version="1.0" encoding="iso-8859-1"?>
<!-- Generator: Adobe Illustrator 16.0.0, SVG Export Plug-In . SVG Version: 6.00 Build 0)  -->
<!DOCTYPE svg PUBLIC "-//W3C//DTD SVG 1.1//EN" "http://www.w3.org/Graphics/SVG/1.1/DTD/svg11.dtd">
<svg version="1.1" id="Capa_1" xmlns="http://www.w3.org/2000/svg" xmlns:xlink="http://www.w3.org/1999/xlink" x="0px" y="0px"
	 width="168.107px" height="168.108px" viewBox="0 0 168.107 168.108" style="enable-background:new 0 0 168.107 168.108;"
	 xml:space="preserve">
<g>
	<g>
		<path d="M148.759,61.845c9.105,7.705,8.867,10.914,8.988,14.457c0.435,12.211-20.025,3.423-25.38,0
			c-33.297-21.3-35.874-20.386-47.874-16.386l-0.437,0.17l-0.428-0.17c-11.999-4-14.586-4.914-47.875,16.386
			c-5.351,3.423-25.813,12.211-25.393,0c0.128-3.543-0.1-6.752,9-14.457c0,0-26.136,0.963-17.676,27.954
			c4.09,13.04,15.803,36.602,82.364,4.63c66.567,31.972,78.277,8.41,82.364-4.63C174.896,62.803,148.759,61.845,148.759,61.845z"/>
	</g>
</g>
<g>
</g>
<g>
</g>
<g>
</g>
<g>
</g>
<g>
</g>
<g>
</g>
<g>
</g>
<g>
</g>
<g>
</g>
<g>
</g>
<g>
</g>
<g>
</g>
<g>
</g>
<g>
</g>
<g>
</g>
</svg>
